<?xml version="1.0" standalone="no"?>
<!DOCTYPE svg PUBLIC "-//W3C//DTD SVG 20010904//EN"
 "http://www.w3.org/TR/2001/REC-SVG-20010904/DTD/svg10.dtd">
<svg version="1.0" xmlns="http://www.w3.org/2000/svg"
 width="1000.000000pt" height="309.000000pt" viewBox="0 0 1000.000000 309.000000"
 preserveAspectRatio="xMidYMid meet">

<g transform="translate(0.000000,309.000000) scale(0.100000,-0.100000)"
fill="red" stroke="none">
<path d="M7536 2368 c-19 -40 -61 -131 -95 -201 -33 -70 -61 -137 -61 -148 0
-19 10 -19 557 -17 l557 3 178 200 c98 110 183 208 188 218 10 16 -23 17 -640
17 l-651 0 -33 -72z"/>
<path d="M9210 2413 c0 -82 -12 -98 -266 -353 l-244 -246 0 -462 c0 -430 1
-463 17 -460 11 2 133 247 379 763 200 418 363 766 363 773 1 9 -30 12 -124
12 l-125 0 0 -27z"/>
<path d="M9690 2423 c-19 -32 -910 -1916 -910 -1925 0 -5 68 -7 151 -6 l151 3
459 967 c252 532 459 970 459 973 0 3 -67 5 -150 5 -132 0 -151 -2 -160 -17z"/>
<path d="M7151 1563 c-49 -98 -157 -322 -241 -498 -84 -176 -179 -373 -211
-437 -33 -65 -59 -122 -59 -128 0 -7 164 -10 486 -10 459 0 486 1 481 18 -4 9
-20 64 -37 122 -18 58 -35 109 -39 113 -5 4 -31 -15 -59 -42 -57 -55 -91 -69
-128 -52 -42 19 -30 93 29 173 10 14 18 31 15 38 -2 7 -52 27 -111 45 -143 43
-174 73 -143 134 31 59 39 61 283 61 l222 0 25 33 c14 17 45 59 70 92 24 33
83 102 130 153 55 59 86 100 86 115 0 20 -28 32 -333 135 -182 62 -342 112
-354 112 -19 0 -36 -27 -112 -177z"/>
<path d="M7960 1134 l-175 -165 -8 -227 c-4 -124 -5 -232 -3 -239 8 -19 659
-19 654 0 -2 6 -27 84 -55 172 -29 88 -80 252 -114 365 -45 150 -68 212 -87
233 -14 15 -28 27 -31 26 -3 0 -85 -74 -181 -165z"/>
<path d="M2170 244 c0 -4 11 -22 24 -39 l25 -32 -24 -13 c-45 -24 -52 -95 -11
-122 19 -13 91 -9 113 7 18 13 22 13 33 0 7 -8 19 -15 27 -15 13 0 13 3 2 16
-7 9 -12 30 -11 46 2 27 1 29 -13 18 -13 -11 -21 -7 -53 30 -70 81 -69 80 -17
80 33 0 45 4 43 13 -5 13 -138 24 -138 11z m104 -132 c29 -31 29 -32 10 -47
-39 -30 -104 -12 -104 30 0 24 49 72 59 58 4 -4 19 -23 35 -41z"/>
</g>
</svg>
